<!DOCTYPE svg PUBLIC "-//W3C//DTD SVG 1.1//EN" "http://www.w3.org/Graphics/SVG/1.1/DTD/svg11.dtd">
<!-- Uploaded to: SVG Repo, www.svgrepo.com, Transformed by: SVG Repo Mixer Tools -->
<svg width="800px" height="800px" viewBox="0 0 281.25 281.25" id="svg2" version="1.1" xml:space="preserve" xmlns="http://www.w3.org/2000/svg" xmlns:cc="http://creativecommons.org/ns#" xmlns:dc="http://purl.org/dc/elements/1.1/" xmlns:rdf="http://www.w3.org/1999/02/22-rdf-syntax-ns#" xmlns:svg="http://www.w3.org/2000/svg" fill="#ffffff" stroke="#ffffff" stroke-width="2.8125">
<g id="SVGRepo_bgCarrier" stroke-width="0"/>
<g id="SVGRepo_tracerCarrier" stroke-linecap="round" stroke-linejoin="round"/>
<g id="SVGRepo_iconCarrier"> <defs id="defs4"/> <g id="layer1" transform="translate(6111.1064,-3994.3706)"> <path d="m -6064.3529,4034.1868 a 4.6879687,4.6879687 0 0 0 -4.6875,4.6875 v 192.2424 a 4.6879687,4.6879687 0 0 0 4.6875,4.6875 h 187.7436 a 4.6879687,4.6879687 0 0 0 4.6875,-4.6875 v -140.625 -51.6174 a 4.6879687,4.6879687 0 0 0 -4.6875,-4.6875 z m 4.6875,9.375 h 178.3686 v 42.2424 h -178.3686 z m 15.5933,14.9835 a 4.6875,4.6875 0 0 0 -4.6875,4.6875 4.6875,4.6875 0 0 0 4.6875,4.6875 h 7.1027 a 4.6875,4.6875 0 0 0 4.6875,-4.6875 4.6875,4.6875 0 0 0 -4.6875,-4.6875 z m 26.5173,0 a 4.6875,4.6875 0 0 0 -4.6875,4.6875 4.6875,4.6875 0 0 0 4.6875,4.6875 h 7.1009 a 4.6875,4.6875 0 0 0 4.6875,-4.6875 4.6875,4.6875 0 0 0 -4.6875,-4.6875 z m 112.696,0 a 4.6875,4.6875 0 0 0 -4.6875,4.6875 4.6875,4.6875 0 0 0 4.6875,4.6875 h 7.1008 a 4.6875,4.6875 0 0 0 4.6875,-4.6875 4.6875,4.6875 0 0 0 -4.6875,-4.6875 z m -154.8066,36.6339 h 178.3686 v 131.25 h -178.3686 z" id="rect4895" style="color:#ffffff;fill:#ffffff;fill-opacity:1;fill-rule:evenodd;stroke-linecap:round;stroke-linejoin:round;-inkscape-stroke:none"/> </g> </g>
</svg>