<svg width="654.3928466796875px" height="272px" xmlns="http://www.w3.org/2000/svg" viewBox="-77.19642333984376 -61 654.3928466796875 272" style="background: rgba(0, 0, 0, 0);" preserveAspectRatio="xMidYMid"><defs><filter id="editing-extrusion" x="-100%" y="-100%" width="300%" height="300%"><feFlood result="color1" flood-color="#e7e7e7"></feFlood><feConvolveMatrix order="6,6" divisor="1" kernelMatrix="1 0 0 0 0 0 0 1 0 0 0 0 0 0 1 0 0 0 0 0 0 1 0 0 0 0 0 0 1 0 0 0 0 0 0 1" in="SourceAlpha" result="extrude"></feConvolveMatrix><feComposite in="color1" in2="extrude" result="comp-extrude" operator="in"></feComposite><feOffset dx="3" dy="3" in="comp-extrude" result="offset-extrude"></feOffset><feMerge><feMergeNode in="offset-extrude"></feMergeNode><feMergeNode in="SourceGraphic"></feMergeNode></feMerge></filter></defs><g filter="url(#editing-extrusion)"><g transform="translate(25.14054822921753, 146.07499504089355)"><path d="M77.40-87.44L77.40-87.44L77.40-87.44Q77.40-101.82 58.39-101.82L58.39-101.82L58.39-101.82Q46.47-101.82 34.25-94.60L34.25-94.60L34.25-94.60Q30.71-92.50 28.73-90.73L28.73-90.73L28.73-90.73Q26.74-88.96 24.93-88.96L24.93-88.96L24.93-88.96Q23.13-88.96 21.46-89.86L21.46-89.86L21.46-89.86Q19.80-90.77 18.50-92.14L18.50-92.14L18.50-92.14Q13.73-97.41 19.51-102.33L19.51-102.33L19.51-102.33Q28.18-109.77 48.27-111.94L48.27-111.94L48.27-111.94Q52.32-112.37 58.54-112.37L58.54-112.37L58.54-112.37Q64.75-112.37 71.65-110.13L71.65-110.13L71.65-110.13Q78.55-107.89 83.25-104.06L83.25-104.06L83.25-104.06Q92.64-96.33 92.64-84.33L92.64-84.33L92.64-84.33Q92.64-70.10 79.64-58.39L79.64-58.39L79.64-58.39Q68.36-48.13 52.97-43.72L52.97-43.72L52.97-43.72Q57.16-40.25 60.85-33.75L60.85-33.75L66.63-23.41L66.63-23.41Q74.22-9.32 80.21-8.09L80.21-8.09L80.21-8.09Q82.31-7.73 84.55-8.24L84.55-8.24L84.55-8.24Q86.79-8.74 87.48-8.71L87.48-8.71L87.48-8.71Q88.16-8.67 88.42-7.52L88.42-7.52L88.42-7.52Q88.67-6.36 87.80-4.63L87.80-4.63L87.80-4.63Q86.94-2.89 84.98-1.37L84.98-1.37L84.98-1.37Q80.43 2.24 75.01 1.84L75.01 1.84L75.01 1.84Q69.59 1.45 66.23-0.40L66.23-0.40L66.23-0.40Q62.87-2.24 60.23-5.06L60.23-5.06L60.23-5.06Q57.60-7.88 55.54-11.35L55.54-11.35L55.54-11.35Q53.48-14.81 51.74-18.43L51.74-18.43L48.49-25.51L48.49-25.51Q46.97-28.98 45.67-31.47L45.67-31.47L45.67-31.47Q44.37-33.96 43.43-36.02L43.43-36.02L43.43-36.02Q42.49-38.08 41.34-39.75L41.34-39.75L41.34-39.75Q38.88-43.50 35.05-44.52L35.05-44.52L35.05-44.52Q19.87-5.49 4.19 0L4.19 0L4.19 0Q2.89 0.51 1.55 0.51L1.55 0.51L1.55 0.51Q0.22 0.51-0.87 0.04L-0.87 0.04L-0.87 0.04Q-1.95-0.43-2.67-1.16L-2.67-1.16L-2.67-1.16Q-4.19-2.53-4.19-4.19L-4.19-4.19L-4.19-4.19Q-4.19-5.85-3.11-6.65L-3.11-6.65L-3.11-6.65Q7.73-14.53 20.96-52.61L20.96-52.61L25.29-64.82L25.29-64.82Q32.74-85.92 37.87-90.84L37.87-90.84L37.87-90.84Q39.67-92.21 41.63-92.21L41.63-92.21L41.63-92.21Q43.58-92.21 45.02-91.60L45.02-91.60L45.02-91.60Q46.47-90.98 47.55-90.04L47.55-90.04L47.55-90.04Q50.01-87.88 50.01-85.63L50.01-85.63L50.01-85.63Q50.01-83.39 49.03-81.62L49.03-81.62L49.03-81.62Q48.06-79.85 46.83-76.67L46.83-76.67L46.83-76.67Q43.29-67.42 41.34-61.86L41.34-61.86L37.65-51.45L37.65-51.45Q53.04-53.48 64.89-63.52L64.89-63.52L64.89-63.52Q77.40-74.07 77.40-87.44ZM97.70-25.29L97.70-25.29L97.70-25.29Q97.99-31.58 99.80-37.33L99.80-37.33L99.80-37.33Q101.61-43.07 104.64-48.45L104.64-48.45L104.64-48.45Q107.68-53.84 111.76-58.64L111.76-58.64L111.76-58.64Q115.84-63.45 120.61-67.06L120.61-67.06L120.61-67.06Q130.95-74.79 141.50-74.79L141.50-74.79L141.50-74.79Q153.85-74.79 157.97-64.61L157.97-64.61L157.97-64.61Q159.42-61.14 159.35-56.40L159.35-56.40L159.35-56.40Q159.27-51.67 157.54-47.66L157.54-47.66L157.54-47.66Q155.80-43.65 152.73-40.36L152.73-40.36L152.73-40.36Q149.66-37.07 145.43-34.47L145.43-34.47L145.43-34.47Q141.21-31.87 136.22-30.06L136.22-30.06L136.22-30.06Q125.96-26.45 114.25-26.30L114.25-26.30L114.25-26.30Q113.96-25.29 113.89-23.27L113.89-23.27L113.89-23.27Q113.82-21.25 114.32-18.75L114.32-18.75L114.32-18.75Q114.83-16.26 116.06-14.31L116.06-14.31L116.06-14.31Q118.66-9.97 123.57-9.97L123.57-9.97L123.57-9.97Q131.96-9.97 139.91-14.89L139.91-14.89L139.91-14.89Q142.72-16.55 144.50-18.32L144.50-18.32L144.50-18.32Q146.27-20.09 147.57-20.09L147.57-20.09L147.57-20.09Q148.87-20.09 149.84-18.54L149.84-18.54L149.84-18.54Q150.82-16.98 150.82-15.03L150.82-15.03L150.82-15.03Q150.82-11.20 148.65-8.38L148.65-8.38L148.65-8.38Q139.54 0.72 121.55 0.72L121.55 0.72L121.55 0.72Q110.93 0.72 104.50-5.64L104.50-5.64L104.50-5.64Q97.27-12.86 97.70-25.29ZM139.91-65.18L139.91-65.18L139.91-65.18Q132.32-65.18 125.31-54.78L125.31-54.78L125.31-54.78Q119.38-45.82 115.77-33.53L115.77-33.53L115.77-33.53Q127.84-34.76 136.73-43.07L136.73-43.07L136.73-43.07Q144.89-50.88 144.89-58.03L144.89-58.03L144.89-58.03Q144.89-65.18 139.91-65.18ZM159.06 15.90L159.06 15.90L159.06 15.90Q159.06 14.38 161.33 9.86L161.33 9.86L161.33 9.86Q163.61 5.35 166.32-1.66L166.32-1.66L166.32-1.66Q169.03-8.67 171.49-16.26L171.49-16.26L171.49-16.26Q173.94-23.85 176.47-32.52L176.47-32.52L182.11-51.60L174.59-49.57L174.59-49.57Q171.78-49.57 169.97-52.54L169.97-52.54L169.97-52.54Q169.54-53.33 169.54-54.42L169.54-54.42L169.54-54.42Q169.54-55.50 171.27-56.98L171.27-56.98L171.27-56.98Q173.00-58.46 175.53-59.76L175.53-59.76L175.53-59.76Q180.59-62.37 185.94-63.74L185.94-63.74L186.59-65.76L186.59-65.76Q188.54-71.83 190.31-78.37L190.31-78.37L190.31-78.37Q192.08-84.91 194.07-91.13L194.07-91.13L194.07-91.13Q196.06-97.34 198.59-102.94L198.59-102.94L198.59-102.94Q201.12-108.54 204.51-112.73L204.51-112.73L204.51-112.73Q212.03-121.84 223.37-121.84L223.37-121.84L223.37-121.84Q231.76-121.84 236.67-117.36L236.67-117.36L236.67-117.36Q241.58-112.88 241.58-105.22L241.58-105.22L241.58-105.22Q241.58-97.27 237.03-91.42L237.03-91.42L237.03-91.42Q233.20-86.57 228.50-86.57L228.50-86.57L228.50-86.57Q222.65-86.57 220.55-91.92L220.55-91.92L220.55-91.92Q219.98-93.29 219.98-94.23L219.98-94.23L219.98-94.23Q219.98-95.82 222.14-97.13L222.14-97.13L222.14-97.13Q226.12-100.16 227.71-105.22L227.71-105.22L227.71-105.22Q228.21-106.81 228.21-108.33L228.21-108.33L228.21-108.33Q228.21-114.25 223.59-114.25L223.59-114.25L223.59-114.25Q217.23-114.25 211.88-99.87L211.88-99.87L211.88-99.87Q210.29-95.46 208.70-90.19L208.70-90.19L201.91-67.13L201.91-67.13Q208.49-68.15 211.49-68.15L211.49-68.15L211.49-68.15Q214.48-68.15 216.80-67.46L216.80-67.46L216.80-67.46Q219.11-66.77 220.99-65.54L220.99-65.54L220.99-65.54Q225.25-62.73 225.25-58.61L225.25-58.61L225.25-58.61Q225.25-54.49 221.21-54.49L221.21-54.49L212.03-54.85L212.03-54.85Q204.51-54.85 198.15-54.20L198.15-54.20L192.23-33.24L192.23-33.24Q186.37-11.92 182.72-2.24L182.72-2.24L182.72-2.24Q179.07 7.44 175.61 14.16L175.61 14.16L175.61 14.16Q172.35 20.31 165.71 20.31L165.71 20.31L165.71 20.31Q159.06 20.31 159.06 15.90ZM229.01-2.89L229.01-2.89L229.01-2.89Q227.20-4.77 226.08-7.70L226.08-7.70L226.08-7.70Q224.96-10.62 224.96-14.49L224.96-14.49L224.96-14.49Q224.96-18.36 226.73-24.86L226.73-24.86L226.73-24.86Q228.50-31.36 231.25-39.67L231.25-39.67L237.32-57.67L237.32-57.67Q250.26-95.25 252.28-115.77L252.28-115.77L252.28-115.77Q252.93-121.84 258.21-121.84L258.21-121.84L258.21-121.84Q261.53-121.84 263.70-120.25L263.70-120.25L263.70-120.25Q267.89-117.07 267.74-113.17L267.74-113.17L267.74-113.17Q267.60-109.27 266.37-103.67L266.37-103.67L266.37-103.67Q265.14-98.06 263.19-91.45L263.19-91.45L263.19-91.45Q261.24-84.84 258.71-77.47L258.71-77.47L248.74-48.13L248.74-48.13Q240.14-23.13 240.14-15.83L240.14-15.83L240.14-15.83Q240.14-11.92 243.32-11.92L243.32-11.92L243.32-11.92Q246.35-11.92 248.85-13.22L248.85-13.22L248.85-13.22Q251.34-14.53 252.06-14.53L252.06-14.53L252.06-14.53Q253.58-14.53 253.58-13.01L253.58-13.01L253.58-13.01Q253.58-6.58 247.00-2.24L247.00-2.24L247.00-2.24Q242.60 0.72 238.95 0.72L238.95 0.72L238.95 0.72Q235.30 0.72 233.06-0.14L233.06-0.14L233.06-0.14Q230.82-1.01 229.01-2.89ZM267.09-25.29L267.09-25.29L267.09-25.29Q267.38-31.58 269.19-37.33L269.19-37.33L269.19-37.33Q271.00-43.07 274.03-48.45L274.03-48.45L274.03-48.45Q277.07-53.84 281.15-58.64L281.15-58.64L281.15-58.64Q285.23-63.45 290.00-67.06L290.00-67.06L290.00-67.06Q300.34-74.79 310.89-74.79L310.89-74.79L310.89-74.79Q323.24-74.79 327.36-64.61L327.36-64.61L327.36-64.61Q328.81-61.14 328.74-56.40L328.74-56.40L328.74-56.40Q328.66-51.67 326.93-47.66L326.93-47.66L326.93-47.66Q325.20-43.65 322.12-40.36L322.12-40.36L322.12-40.36Q319.05-37.07 314.83-34.47L314.83-34.47L314.83-34.47Q310.60-31.87 305.61-30.06L305.61-30.06L305.61-30.06Q295.35-26.45 283.64-26.30L283.64-26.30L283.64-26.30Q283.35-25.29 283.28-23.27L283.28-23.27L283.28-23.27Q283.21-21.25 283.71-18.75L283.71-18.75L283.71-18.75Q284.22-16.26 285.45-14.31L285.45-14.31L285.45-14.31Q288.05-9.97 292.96-9.97L292.96-9.97L292.96-9.97Q301.35-9.97 309.30-14.89L309.30-14.89L309.30-14.89Q312.12-16.55 313.89-18.32L313.89-18.32L313.89-18.32Q315.66-20.09 316.96-20.09L316.96-20.09L316.96-20.09Q318.26-20.09 319.23-18.54L319.23-18.54L319.23-18.54Q320.21-16.98 320.21-15.03L320.21-15.03L320.21-15.03Q320.21-11.20 318.04-8.38L318.04-8.38L318.04-8.38Q308.94 0.72 290.94 0.72L290.94 0.72L290.94 0.72Q280.32 0.72 273.89-5.64L273.89-5.64L273.89-5.64Q266.66-12.86 267.09-25.29ZM309.30-65.18L309.30-65.18L309.30-65.18Q301.71-65.18 294.70-54.78L294.70-54.78L294.70-54.78Q288.77-45.82 285.16-33.53L285.16-33.53L285.16-33.53Q297.23-34.76 306.12-43.07L306.12-43.07L306.12-43.07Q314.28-50.88 314.28-58.03L314.28-58.03L314.28-58.03Q314.28-65.18 309.30-65.18ZM336.04-24.93L336.04-24.93L336.04-24.93Q336.18-31.22 338.02-37.47L338.02-37.47L338.02-37.47Q339.87-43.72 342.94-49.29L342.94-49.29L342.94-49.29Q346.01-54.85 350.24-59.55L350.24-59.55L350.24-59.55Q354.46-64.24 359.45-67.64L359.45-67.64L359.45-67.64Q369.86-74.79 381.35-74.79L381.35-74.79L381.35-74.79Q393.20-74.79 397.46-65.33L397.46-65.33L397.46-65.33Q398.98-61.93 398.87-57.63L398.87-57.63L398.87-57.63Q398.76-53.33 397.46-49.75L397.46-49.75L397.46-49.75Q396.16-46.18 394.21-43.36L394.21-43.36L394.21-43.36Q389.80-37 385.32-37L385.32-37L385.32-37Q380.33-37 377.95-39.75L377.95-39.75L377.95-39.75Q375.85-42.13 376.65-45.31L376.65-45.31L376.65-45.31Q376.87-46.25 377.95-47.01L377.95-47.01L377.95-47.01Q379.03-47.77 380.70-49.43L380.70-49.43L380.70-49.43Q385.39-54.34 385.61-60.92L385.61-60.92L385.61-60.92Q385.75-65.40 380.12-65.40L380.12-65.40L380.12-65.40Q374.05-65.40 367.40-58.61L367.40-58.61L367.40-58.61Q357.71-48.71 353.74-33.24L353.74-33.24L353.74-33.24Q350.27-19.80 355.04-13.59L355.04-13.59L355.04-13.59Q357.86-9.97 362.70-9.97L362.70-9.97L362.70-9.97Q370.87-9.97 378.46-15.75L378.46-15.75L378.46-15.75Q380.77-17.56 382.21-19.44L382.21-19.44L382.21-19.44Q383.66-21.32 384.89-21.32L384.89-21.32L384.89-21.32Q386.12-21.32 386.95-20.13L386.95-20.13L386.95-20.13Q387.78-18.93 387.78-17.05L387.78-17.05L387.78-17.05Q387.78-12.79 383.95-8.67L383.95-8.67L383.95-8.67Q374.12 0.72 360.32 0.72L360.32 0.72L360.32 0.72Q348.54 0.72 342.11-6.00L342.11-6.00L342.11-6.00Q335.75-12.65 336.04-24.93ZM443.86-18.93L443.86-18.93L443.86-18.93Q445.95-18.93 445.95-16.12L445.95-16.12L445.95-16.12Q445.95-13.73 444.51-11.49L444.51-11.49L444.51-11.49Q442.55-7.30 436.70-3.54L436.70-3.54L436.70-3.54Q430.05 0.72 423.33 0.72L423.33 0.72L423.33 0.72Q411.70 0.72 408.59-9.68L408.59-9.68L408.59-9.68Q404.90-22.04 419.65-62.08L419.65-62.08L419.65-62.08Q411.34-62.80 410.61-64.97L410.61-64.97L410.61-64.97Q410.40-65.62 410.40-66.38L410.40-66.38L410.40-66.38Q410.40-67.13 411.08-68.15L411.08-68.15L411.08-68.15Q411.77-69.16 412.85-70.10L412.85-70.10L412.85-70.10Q415.38-72.19 417.98-72.19L417.98-72.19L423.69-72.19L423.69-72.19Q431.50-90.48 434.82-93.01L434.82-93.01L434.82-93.01Q436.41-94.16 438.36-94.16L438.36-94.16L438.36-94.16Q440.31-94.16 441.62-93.66L441.62-93.66L441.62-93.66Q442.92-93.15 443.93-92.21L443.93-92.21L443.93-92.21Q446.24-90.04 446.24-87.37L446.24-87.37L446.24-87.37Q446.24-85.92 445.37-84.04L445.37-84.04L440.03-72.41L441.76-72.41L441.76-72.41Q446.24-72.41 448.99-72.48L448.99-72.48L448.99-72.48Q448.99-72.48 453.11-72.55L453.11-72.55L453.11-72.55Q454.48-72.63 456.54-72.63L456.54-72.63L456.54-72.63Q458.60-72.63 458.60-71.11L458.60-71.11L458.60-71.11Q458.60-61.57 436.05-61.57L436.05-61.57L435.47-61.57L430.56-48.85L430.56-48.85Q422.25-26.30 422.25-17.27L422.25-17.27L422.25-17.27Q422.25-14.74 423.40-13.33L423.40-13.33L423.40-13.33Q424.56-11.92 427.74-11.92L427.74-11.92L427.74-11.92Q430.92-11.92 433.52-13.01L433.52-13.01L433.52-13.01Q436.12-14.09 438.07-15.43L438.07-15.43L438.07-15.43Q440.03-16.77 441.43-17.85L441.43-17.85L441.43-17.85Q442.84-18.93 443.86-18.93Z" fill="#476288"></path></g></g><style>text {
  font-size: 64px;
  font-family: Arial Black;
  dominant-baseline: central;
  text-anchor: middle;
}</style></svg>